<svg width="28" height="34" viewBox="0 0 28 34" fill="none" xmlns="http://www.w3.org/2000/svg">
<path d="M23.1707 17.7192C23.132 13.5293 26.6894 11.4909 26.852 11.396C24.8374 8.53209 21.7147 8.14079 20.6174 8.10959C17.9947 7.84049 15.4507 9.63969 14.1147 9.63969C12.752 9.63969 10.6947 8.13559 8.47737 8.17979C5.62403 8.22269 2.9547 9.83339 1.4907 12.3346C-1.53063 17.4345 0.722703 24.929 3.61737 29.0513C5.06537 31.0702 6.75737 33.3244 8.97204 33.2451C11.1387 33.158 11.948 31.8983 14.5627 31.8983C17.1534 31.8983 17.9134 33.2451 20.172 33.1944C22.4974 33.158 23.9614 31.1664 25.3587 29.1293C27.032 26.8153 27.704 24.5364 27.7307 24.4194C27.676 24.4012 23.2147 22.7411 23.1707 17.7192Z" fill="white"/>
<path d="M18.904 5.39779C20.0694 3.97689 20.8667 2.04379 20.6454 0.0820923C18.9587 0.154892 16.8494 1.21959 15.6347 2.60929C14.56 3.83389 13.6 5.84109 13.848 7.72869C15.7427 7.86649 17.688 6.79659 18.904 5.39779Z" fill="white"/>
</svg>
