<svg width="32" height="33" viewBox="0 0 32 33" fill="none" xmlns="http://www.w3.org/2000/svg">
<path fill-rule="evenodd" clip-rule="evenodd" d="M12.8046 32.1092C15.3476 32.8789 17.9106 33.1837 20.1179 32.8896C27.5647 31.8972 31.636 21.9397 32 14.1289L12.8046 32.1092ZM4.42642 27.5665C4.95835 28.0311 5.52397 28.4715 6.11772 28.8858L30.6122 5.94093C30.3034 5.21915 29.9617 4.57196 29.5903 3.99464L4.42642 27.5665ZM15.3348 1.6524C8.39533 4.60206 -0.848571 13.7059 0.0624742 20.3548C0.131983 20.8614 0.248716 21.3581 0.403917 21.8468L23.6327 0.0881941C23.1901 0.0287874 22.737 0.000261704 22.2751 0C20.1126 0 17.7512 0.625471 15.3348 1.6524ZM8.23509 30.194C8.89914 30.5562 9.58202 30.8873 10.2768 31.1856L31.9241 10.9086C31.849 10.1818 31.7368 9.49225 31.5795 8.86024C31.5429 8.71394 31.5028 8.57629 31.4646 8.43418L8.23509 30.194ZM1.46963 24.1401C1.83389 24.7365 2.25572 25.3125 2.72955 25.8644L28.056 2.14047C27.5037 1.62937 26.9118 1.21535 26.2838 0.896073L1.46963 24.1401Z" fill="white"/>
<path fill-rule="evenodd" clip-rule="evenodd" d="M12.8046 32.1092C15.3476 32.8789 17.9106 33.1837 20.1179 32.8896C27.5647 31.8972 31.636 21.9397 32 14.1289L12.8046 32.1092ZM4.42642 27.5665C4.95835 28.0311 5.52397 28.4715 6.11772 28.8858L30.6122 5.94093C30.3034 5.21915 29.9617 4.57196 29.5903 3.99464L4.42642 27.5665ZM15.3348 1.6524C8.39533 4.60206 -0.848571 13.7059 0.0624742 20.3548C0.131983 20.8614 0.248716 21.3581 0.403917 21.8468L23.6327 0.0881941C23.1901 0.0287874 22.737 0.000261704 22.2751 0C20.1126 0 17.7512 0.625471 15.3348 1.6524ZM8.23509 30.194C8.89914 30.5562 9.58202 30.8873 10.2768 31.1856L31.9241 10.9086C31.849 10.1818 31.7368 9.49225 31.5795 8.86024C31.5429 8.71394 31.5028 8.57629 31.4646 8.43418L8.23509 30.194ZM1.46963 24.1401C1.83389 24.7365 2.25572 25.3125 2.72955 25.8644L28.056 2.14047C27.5037 1.62937 26.9118 1.21535 26.2838 0.896073L1.46963 24.1401Z" fill="url(#paint0_radial_47_48)"/>
<path fill-rule="evenodd" clip-rule="evenodd" d="M12.8046 32.1092C15.3476 32.8789 17.9106 33.1837 20.1179 32.8896C27.5647 31.8972 31.636 21.9397 32 14.1289L12.8046 32.1092ZM4.42642 27.5665C4.95835 28.0311 5.52397 28.4715 6.11772 28.8858L30.6122 5.94093C30.3034 5.21915 29.9617 4.57196 29.5903 3.99464L4.42642 27.5665ZM15.3348 1.6524C8.39533 4.60206 -0.848571 13.7059 0.0624742 20.3548C0.131983 20.8614 0.248716 21.3581 0.403917 21.8468L23.6327 0.0881941C23.1901 0.0287874 22.737 0.000261704 22.2751 0C20.1126 0 17.7512 0.625471 15.3348 1.6524ZM8.23509 30.194C8.89914 30.5562 9.58202 30.8873 10.2768 31.1856L31.9241 10.9086C31.849 10.1818 31.7368 9.49225 31.5795 8.86024C31.5429 8.71394 31.5028 8.57629 31.4646 8.43418L8.23509 30.194ZM1.46963 24.1401C1.83389 24.7365 2.25572 25.3125 2.72955 25.8644L28.056 2.14047C27.5037 1.62937 26.9118 1.21535 26.2838 0.896073L1.46963 24.1401Z" fill="url(#paint1_linear_47_48)" style="mix-blend-mode:difference"/>
<path fill-rule="evenodd" clip-rule="evenodd" d="M12.8046 32.1092C15.3476 32.8789 17.9106 33.1837 20.1179 32.8896C27.5647 31.8972 31.636 21.9397 32 14.1289L12.8046 32.1092ZM4.42642 27.5665C4.95835 28.0311 5.52397 28.4715 6.11772 28.8858L30.6122 5.94093C30.3034 5.21915 29.9617 4.57196 29.5903 3.99464L4.42642 27.5665ZM15.3348 1.6524C8.39533 4.60206 -0.848571 13.7059 0.0624742 20.3548C0.131983 20.8614 0.248716 21.3581 0.403917 21.8468L23.6327 0.0881941C23.1901 0.0287874 22.737 0.000261704 22.2751 0C20.1126 0 17.7512 0.625471 15.3348 1.6524ZM8.23509 30.194C8.89914 30.5562 9.58202 30.8873 10.2768 31.1856L31.9241 10.9086C31.849 10.1818 31.7368 9.49225 31.5795 8.86024C31.5429 8.71394 31.5028 8.57629 31.4646 8.43418L8.23509 30.194ZM1.46963 24.1401C1.83389 24.7365 2.25572 25.3125 2.72955 25.8644L28.056 2.14047C27.5037 1.62937 26.9118 1.21535 26.2838 0.896073L1.46963 24.1401Z" fill="url(#paint2_linear_47_48)" style="mix-blend-mode:screen"/>
<path fill-rule="evenodd" clip-rule="evenodd" d="M12.8046 32.1092C15.3476 32.8789 17.9106 33.1837 20.1179 32.8896C27.5647 31.8972 31.636 21.9397 32 14.1289L12.8046 32.1092ZM4.42642 27.5665C4.95835 28.0311 5.52397 28.4715 6.11772 28.8858L30.6122 5.94093C30.3034 5.21915 29.9617 4.57196 29.5903 3.99464L4.42642 27.5665ZM15.3348 1.6524C8.39533 4.60206 -0.848571 13.7059 0.0624742 20.3548C0.131983 20.8614 0.248716 21.3581 0.403917 21.8468L23.6327 0.0881941C23.1901 0.0287874 22.737 0.000261704 22.2751 0C20.1126 0 17.7512 0.625471 15.3348 1.6524ZM8.23509 30.194C8.89914 30.5562 9.58202 30.8873 10.2768 31.1856L31.9241 10.9086C31.849 10.1818 31.7368 9.49225 31.5795 8.86024C31.5429 8.71394 31.5028 8.57629 31.4646 8.43418L8.23509 30.194ZM1.46963 24.1401C1.83389 24.7365 2.25572 25.3125 2.72955 25.8644L28.056 2.14047C27.5037 1.62937 26.9118 1.21535 26.2838 0.896073L1.46963 24.1401Z" fill="white"/>
<defs>
<radialGradient id="paint0_radial_47_48" cx="0" cy="0" r="1" gradientUnits="userSpaceOnUse" gradientTransform="translate(32) rotate(134.119) scale(45.9674 45.9456)">
<stop stop-color="#78FFF1"/>
<stop offset="0.2" stop-color="#D0DEFF"/>
<stop offset="0.4" stop-color="#DF97DF"/>
<stop offset="0.6" stop-color="#97EBBE"/>
<stop offset="0.8" stop-color="#F1FCAF"/>
<stop offset="1" stop-color="#C2E3F1"/>
</radialGradient>
<linearGradient id="paint1_linear_47_48" x1="0" y1="0" x2="39.7561" y2="14.6874" gradientUnits="userSpaceOnUse">
<stop stop-color="white"/>
<stop offset="0.25"/>
<stop offset="0.5" stop-color="white"/>
<stop offset="0.75"/>
<stop offset="1" stop-color="white"/>
</linearGradient>
<linearGradient id="paint2_linear_47_48" x1="0" y1="0" x2="39.7561" y2="14.6874" gradientUnits="userSpaceOnUse">
<stop stop-color="white"/>
<stop offset="0.234375"/>
<stop offset="0.489583" stop-color="white"/>
<stop offset="0.734375"/>
<stop offset="1" stop-color="white"/>
</linearGradient>
</defs>
</svg>
