<svg width="38" height="37" viewBox="0 0 38 37" fill="none" xmlns="http://www.w3.org/2000/svg">
<g clip-path="url(#clip0_2_1423)">
<path d="M19 3.08334C10.49 3.08334 3.58334 9.99001 3.58334 18.5C3.58334 27.01 10.49 33.9167 19 33.9167C27.51 33.9167 34.4167 27.01 34.4167 18.5C34.4167 9.99001 27.51 3.08334 19 3.08334ZM17.4583 30.7254C11.3688 29.97 6.66668 24.79 6.66668 18.5C6.66668 17.5442 6.79001 16.6346 6.99043 15.7404L14.375 23.125V24.6667C14.375 26.3625 15.7625 27.75 17.4583 27.75V30.7254ZM28.0958 26.8096C27.695 25.5608 26.5542 24.6667 25.1667 24.6667H23.625V20.0417C23.625 19.1938 22.9313 18.5 22.0833 18.5H12.8333V15.4167H15.9167C16.7646 15.4167 17.4583 14.7229 17.4583 13.875V10.7917H20.5417C22.2375 10.7917 23.625 9.40418 23.625 7.70834V7.07626C28.1421 8.91084 31.3333 13.3354 31.3333 18.5C31.3333 21.7067 30.1 24.6204 28.0958 26.8096Z" fill="white"/>
</g>
<defs>
<clipPath id="clip0_2_1423">
<rect width="37" height="37" fill="white" transform="translate(0.5)"/>
</clipPath>
</defs>
</svg>
